# File created by Blade
# Date/Time:  Wed Sep 24 19:42:34 2014
# Frame Rate: 120.000 fps
#------------------------------------------------------
:FULLY-SPECIFIED
:DEGREES
1590
root -4.806994 33.011789 -3.096913 8.125594 6.894552 -2.122845
Spine -14.257077 15.328939 -4.650464
Head 18.286489 -16.926639 12.069264
LeftShoulder -12.103445 19.998537 9.316276
LeftArm 24.582829 33.676234 -67.014494
LeftForeArm 0.532026 -0.000000 23.996110
LeftHand -24.068225 -0.000000 -7.687594
LeftHandThumb1 -26.253704 0.000000 33.147579
RightShoulder 77.500269 119.788677 14.553153
RightArm -16.893598 20.002367 43.022020
RightForeArm 52.744760 -0.000000 135.336592
RightHand 5.350012 -0.000000 21.648303
RightHandThumb1 -24.326973 -0.000000 -32.862282
LeftUpLeg -2.889033 1.908119 6.709224
LeftLeg -2.110235 -0.000000 0.000000
LeftFoot -7.570195 3.533796 -19.028766
LeftToeBase 10.142609 -0.000000 -0.000000
RightUpLeg -3.293630 -11.229153 1.057648
RightLeg 1.180398 -0.000000 -0.000000
RightFoot -6.008224 -5.493056 -14.730330
RightToeBase 0.532296 -0.000000 -0.000000
1591
root -4.809772 33.012680 -3.098859 8.143580 6.849331 -2.151771
Spine -14.291637 15.327316 -4.626541
Head 18.395612 -16.823831 12.307262
LeftShoulder -12.070370 20.005191 9.285700
LeftArm 24.559278 33.683762 -66.994458
LeftForeArm 0.520246 -0.000000 23.927153
LeftHand -24.211529 -0.000000 -7.689013
LeftHandThumb1 -26.253704 0.000000 33.147579
RightShoulder 76.342537 120.212621 12.918306
RightArm -17.663517 20.081741 42.874994
RightForeArm 53.446297 -0.000000 137.558023
RightHand 5.774576 -0.000000 21.651910
RightHandThumb1 -24.326973 -0.000000 -32.862282
LeftUpLeg -2.895196 1.931676 6.739130
LeftLeg -2.126245 -0.000000 0.000000
LeftFoot -7.582899 3.559750 -19.065704
LeftToeBase 10.170789 -0.000000 -0.000000
RightUpLeg -3.320423 -11.246745 1.093573
RightLeg 1.168414 -0.000000 -0.000000
RightFoot -5.994319 -5.419277 -14.744927
RightToeBase 0.503965 -0.000000 -0.000000
1592
root -4.813112 33.014457 -3.100212 8.146095 6.797867 -2.175163
Spine -14.307047 15.331527 -4.642275
Head 18.527687 -16.878975 12.288135
LeftShoulder -12.040457 19.967307 9.289774
LeftArm 24.548100 33.750812 -66.959808
LeftForeArm 0.471260 -0.000000 23.805984
LeftHand -24.200907 0.000000 -7.754820
LeftHandThumb1 -26.253704 0.000000 33.147579
RightShoulder 75.438265 120.604109 11.657466
RightArm -18.331412 20.256843 42.684758
RightForeArm 54.528787 0.000000 139.587170
RightHand 6.093297 -0.000000 21.618795
RightHandThumb1 -24.326973 -0.000000 -32.862282
LeftUpLeg -2.883322 1.949047 6.765592
LeftLeg -2.146546 -0.000000 0.000000
LeftFoot -7.574836 3.577760 -19.098784
LeftToeBase 10.185027 -0.000000 -0.000000
RightUpLeg -3.317654 -11.228019 1.117616
RightLeg 1.131887 -0.000000 -0.000000
RightFoot -5.955099 -5.360211 -14.719060
RightToeBase 0.507082 -0.000000 -0.000000
1593
root -4.816975 33.016120 -3.098015 8.121370 6.737674 -2.202313
Spine -14.307037 15.335857 -4.660585
Head 18.616944 -16.897755 12.381583
LeftShoulder -12.012154 19.940944 9.307540
LeftArm 24.530774 33.785202 -66.954496
LeftForeArm 0.463665 -0.000000 23.678610
LeftHand -24.180261 0.000000 -7.826295
LeftHandThumb1 -26.253704 0.000000 33.147579
RightShoulder 74.534246 120.999483 10.455372
RightArm -18.934957 20.244916 42.589153
RightForeArm 55.274824 -0.000000 141.434902
RightHand 6.139146 -0.000000 21.988118
RightHandThumb1 -24.326973 -0.000000 -32.862282
LeftUpLeg -2.834202 1.995773 6.794124
LeftLeg -2.171434 -0.000000 0.000000
LeftFoot -7.558566 3.590995 -19.097261
LeftToeBase 10.160444 -0.000000 -0.000000
RightUpLeg -3.287161 -11.228546 1.140003
RightLeg 1.106689 -0.000000 -0.000000
RightFoot -5.932272 -5.284169 -14.707974
RightToeBase 0.466847 -0.000000 -0.000000
